<svg width="180" height="180" viewBox="0 0 180 180" fill="none" xmlns="http://www.w3.org/2000/svg">
<rect width="180" height="180" fill="#81B3D3"/>
<path d="M66.2539 107.356C66.3555 107.459 66.407 107.56 66.407 107.663C66.5099 107.663 66.6114 107.713 66.713 107.816C69.4701 110.873 72.5861 113.728 76.0582 116.379C79.5303 118.927 83.5142 120.303 88.0074 120.507C88.1103 120.507 88.2118 120.56 88.3134 120.661H88.7738C88.8754 120.661 88.9783 120.711 89.0799 120.814H90.7645C91.2763 120.711 91.7354 120.61 92.1443 120.507C93.7814 120.201 95.3427 119.577 96.7404 118.673C98.2707 117.755 99.4461 116.633 100.263 115.308L100.57 114.696L100.876 114.085C101.081 113.371 101.234 112.709 101.336 112.097C101.438 111.486 101.489 110.925 101.489 110.415C101.489 107.663 100.263 105.369 97.8129 103.533C95.5287 101.633 92.9385 100.134 90.1524 99.0981C89.1045 98.7121 88.029 98.4057 86.9349 98.1815C85.9744 97.8915 85.0037 97.6363 84.0247 97.4165H83.7187C83.6158 97.3151 83.5142 97.2637 83.4126 97.2637C78.4452 96.0555 73.6921 94.0957 69.3184 91.4525C64.9255 88.7003 61.9138 84.7748 60.2793 79.6773C59.9593 78.6106 59.6527 77.5399 59.3599 76.4655C59.1502 75.3016 58.997 74.1282 58.9008 72.9495C58.8067 72.5997 58.7553 72.2398 58.7478 71.8776V68.2076C58.8493 67.3924 59.0024 66.5773 59.2068 65.7609C59.524 63.6785 60.0368 61.6306 60.7384 59.6441C61.4534 57.6057 62.3729 55.77 63.4955 54.1397C66.7645 48.7354 70.9516 44.8613 76.0582 42.5173C81.2676 40.172 86.6803 39 92.2974 39C93.6258 39 94.9529 39.1014 96.2813 39.3055C97.7158 39.4078 99.1463 39.5607 100.57 39.7638C104.295 40.3893 107.942 41.4149 111.447 42.8228C115.123 44.2503 118.494 45.9319 121.558 47.8689L113.133 66.6787C110.383 64.6449 107.461 62.8543 104.4 61.3271C101.336 59.7969 98.0174 59.0331 94.4424 59.0331H93.2155C90.8674 59.3386 88.6722 60.4092 86.6288 62.2436C84.5867 63.9766 83.5657 65.8636 83.5657 67.9021V68.8199C83.6672 69.1254 83.8203 69.4309 84.0247 69.7377C84.2292 70.4515 84.5867 71.1138 85.0972 71.7262C85.6078 72.3372 86.1697 72.8982 86.7818 73.4078C87.9058 74.3256 89.5389 75.1921 91.6853 76.0072C93.8289 76.721 96.0768 77.4347 98.4263 78.1484C100.366 78.658 102.255 79.1677 104.094 79.6773C105.933 80.0855 107.464 80.4937 108.69 80.9019C114.408 82.9404 118.698 86.355 121.558 91.147C124.417 95.8362 125.898 100.832 126 106.133V106.898C126 107.51 125.95 108.122 125.847 108.733V110.415C125.235 115.717 123.499 120.763 120.639 125.555C117.882 130.347 114.154 134.017 109.456 136.566C107.712 137.384 105.922 138.099 104.094 138.706C102.268 139.213 100.429 139.672 98.5793 140.083C97.0623 140.387 95.527 140.591 93.9833 140.694C92.5107 140.894 91.0264 140.996 89.5403 141H87.8543C81.7267 140.797 75.702 139.471 69.7775 137.023C63.8543 134.475 58.5947 131.111 54 126.931L66.2539 107.356Z" fill="white"/>
</svg>
