<svg width="15" height="6" viewBox="0 0 15 6" fill="none" xmlns="http://www.w3.org/2000/svg">
<path d="M1.77289 0.42L2.07289 0.924L2.28889 1.596L2.54089 0.912L2.82889 0.431999L3.40489 0.744L3.09289 1.26L2.54089 1.836L3.35689 1.692H3.93289V2.364H3.38089L2.61289 2.22L3.16489 2.796L3.44089 3.264L2.87689 3.6L2.56489 3.096L2.28889 2.364L2.06089 3.06L1.76089 3.564L1.16089 3.228L1.48489 2.724L1.98889 2.22L1.29289 2.364H0.692891V1.692H1.29289L2.03689 1.836L1.49689 1.308L1.18489 0.756L1.77289 0.42ZM7.35936 5.1H14.3674V5.988H7.35936V5.1Z" fill="#333333" fill-opacity="0.6"/>
</svg>
